<svg xmlns="http://www.w3.org/2000/svg" xmlns:xlink="http://www.w3.org/1999/xlink" viewBox="0 0 538 145.92"><defs><style>.cls-1{fill:#0c2132;}.cls-2{fill:#f8176d;}.cls-3{fill:url(#Degradado_sin_nombre_2);}</style><linearGradient id="Degradado_sin_nombre_2" x1="8.64" y1="72.96" x2="147.51" y2="72.96" gradientUnits="userSpaceOnUse"><stop offset="0.08" stop-color="#ffa439"/><stop offset="0.86" stop-color="#fa3066"/></linearGradient></defs><g id="Capa_2" data-name="Capa 2"><g id="Capa_1-2" data-name="Capa 1"><g id="_00-logo" data-name="00-logo"><path class="cls-1" d="M211.68,29.27A30.82,30.82,0,0,1,234,38.2a29.52,29.52,0,0,1,9.06,21.93A29.52,29.52,0,0,1,234,82.06,30.82,30.82,0,0,1,211.68,91H195.53v30.2H177.41V29.27Zm0,44.78c7.75,0,13.4-6,13.4-13.92s-5.65-13.92-13.4-13.92H195.53V74.05Z"/><path class="cls-1" d="M290.87,55.53h16.94v65.66H290.87v-7.35C286.8,120,280.23,123,271.3,123c-7.22,0-13.13-2.36-17.86-7.22s-7-11.42-7-20V55.53h17V93.75c0,8.8,5.12,13.52,13,13.52,8.79,0,14.44-5.38,14.44-16.28Z"/><path class="cls-1" d="M337.36,105.3h29.16v15.89H314.64V109.9l27.71-38.48H316V55.53H365.2v11.3Z"/><path class="cls-1" d="M391.6,105.3h29.16v15.89H368.88V109.9l27.71-38.48H370.2V55.53h49.24v11.3Z"/><path class="cls-1" d="M426.67,121.19V25.33h16.94v95.86Z"/><path class="cls-1" d="M466.85,95.32c2.24,8.28,8.41,12.35,18.52,12.35,6.43,0,11.42-2.23,14.71-6.57L513.74,109c-6.44,9.33-16,14-28.63,14-10.9,0-19.57-3.28-26.14-9.85s-9.85-14.84-9.85-24.82,3.29-18.12,9.72-24.68,14.84-10,25-10c9.59,0,17.6,3.29,23.77,10S517,78.51,517,88.36a43.52,43.52,0,0,1-.66,7Zm33.23-13.13c-2-8.93-8.54-13.26-16.29-13.26-9.06,0-15.23,4.86-17.2,13.26Z"/><path class="cls-2" d="M519,119.62a11.14,11.14,0,1,1,15.76,0A11.18,11.18,0,0,1,519,119.62Z"/><path class="cls-3" d="M136.44,68.08h9.48V43.63a15.34,15.34,0,0,0-15.3-15.29H106.21V19.05A19.11,19.11,0,0,0,87.15,0h0A19.1,19.1,0,0,0,68.09,19.05v9.29H43.57a15.34,15.34,0,0,0-15.3,15.29V68.08H19.06A19.11,19.11,0,0,0,0,87.13H0a19.11,19.11,0,0,0,19.06,19.05h9.21v24.45a15.34,15.34,0,0,0,15.3,15.29H68.36v-9A19.12,19.12,0,0,1,87.42,117.9h0A19.12,19.12,0,0,1,106.49,137v9h24.13a15.34,15.34,0,0,0,15.3-15.29V106.18h-9.48a19.11,19.11,0,0,1-19.06-19.05h0A19.11,19.11,0,0,1,136.44,68.08Z"/></g></g></g></svg>