<svg xmlns="http://www.w3.org/2000/svg" viewBox="0 0 117 31.73"><defs><style>.cls-1{fill:#0c2132;}</style></defs><g id="Capa_2" data-name="Capa 2"><g id="Capa_1-2" data-name="Capa 1"><g id="_00-logo" data-name="00-logo"><path class="cls-1" d="M46,6.37a6.68,6.68,0,0,1,4.86,1.94,6.42,6.42,0,0,1,2,4.77,6.45,6.45,0,0,1-2,4.77A6.72,6.72,0,0,1,46,19.79H42.52v6.57H38.58v-20Zm0,9.73a2.9,2.9,0,0,0,2.92-3,2.88,2.88,0,0,0-2.92-3H42.52V16.1Z"/><path class="cls-1" d="M63.26,12.08h3.68V26.36H63.26v-1.6a4.75,4.75,0,0,1-4.26,2,5.19,5.19,0,0,1-3.88-1.57,6.06,6.06,0,0,1-1.52-4.35V12.08h3.69v8.31a2.64,2.64,0,0,0,2.82,2.94c1.92,0,3.15-1.17,3.15-3.54Z"/><path class="cls-1" d="M73.37,22.9h6.34v3.46H68.43V23.9l6-8.37H68.71V12.08H79.42v2.45Z"/><path class="cls-1" d="M85.16,22.9H91.5v3.46H80.22V23.9l6-8.37H80.51V12.08H91.22v2.45Z"/><path class="cls-1" d="M92.79,26.36V5.51h3.68V26.36Z"/><path class="cls-1" d="M101.53,20.73c.48,1.8,1.83,2.68,4,2.68a3.79,3.79,0,0,0,3.2-1.42l3,1.71a7.08,7.08,0,0,1-6.22,3.06,7.68,7.68,0,0,1-5.69-2.15,7.32,7.32,0,0,1-2.14-5.39,7.38,7.38,0,0,1,2.12-5.37,7.17,7.17,0,0,1,5.42-2.17,6.71,6.71,0,0,1,5.17,2.17,7.49,7.49,0,0,1,2.06,5.37,9.18,9.18,0,0,1-.15,1.51Zm7.22-2.86A3.45,3.45,0,0,0,105.21,15a3.56,3.56,0,0,0-3.74,2.88Z"/><path class="cls-1" d="M112.87,26a2.42,2.42,0,1,1,3.42,0A2.41,2.41,0,0,1,112.87,26Z"/><path class="cls-1" d="M29.67,14.81h2.06V9.49a3.33,3.33,0,0,0-3.32-3.33H23.1v-2A4.16,4.16,0,0,0,19,0h0a4.15,4.15,0,0,0-4.14,4.14v2H9.48A3.34,3.34,0,0,0,6.15,9.49v5.32h-2A4.16,4.16,0,0,0,0,19H0a4.16,4.16,0,0,0,4.15,4.14h2v5.32a3.33,3.33,0,0,0,3.33,3.32h5.39V29.78A4.15,4.15,0,0,1,19,25.64h0a4.16,4.16,0,0,1,4.15,4.14v1.95h5.25a3.32,3.32,0,0,0,3.32-3.32V23.09H29.67A4.15,4.15,0,0,1,25.53,19h0A4.15,4.15,0,0,1,29.67,14.81Z"/></g></g></g></svg>